<svg id="Layer_1" data-name="Layer 1" xmlns="http://www.w3.org/2000/svg" xmlns:xlink="http://www.w3.org/1999/xlink" viewBox="0 0 342.02 264.39"><defs><linearGradient id="linear-gradient" x1="128.96" y1="247.1" x2="121.62" y2="298.46" gradientUnits="userSpaceOnUse"><stop offset="0.02" stop-color="#fff" stop-opacity="0"/><stop offset="0.58" stop-color="#fff" stop-opacity="0.39"/><stop offset="0.68" stop-color="#fff" stop-opacity="0.68"/><stop offset="1" stop-color="#fff"/></linearGradient><linearGradient id="linear-gradient-2" x1="161.7" y1="259.98" x2="157.79" y2="287.41" xlink:href="#linear-gradient"/><linearGradient id="linear-gradient-3" x1="175.28" y1="253.54" x2="172.59" y2="272.39" xlink:href="#linear-gradient"/><linearGradient id="linear-gradient-4" x1="228.82" y1="182.34" x2="245.12" y2="200.89" gradientUnits="userSpaceOnUse"><stop offset="0.01"/><stop offset="0.13" stop-opacity="0.69"/><stop offset="1" stop-opacity="0"/></linearGradient><linearGradient id="linear-gradient-5" x1="219.37" y1="157.03" x2="221.21" y2="173.34" xlink:href="#linear-gradient-4"/><linearGradient id="linear-gradient-6" x1="292.18" y1="122.56" x2="290" y2="92.4" xlink:href="#linear-gradient-4"/><linearGradient id="linear-gradient-7" x1="245.36" y1="166.11" x2="233.94" y2="122.49" xlink:href="#linear-gradient-4"/><linearGradient id="linear-gradient-8" x1="250.58" y1="249.57" x2="276.68" y2="249.57" xlink:href="#linear-gradient-4"/><linearGradient id="linear-gradient-9" x1="151.46" y1="224.2" x2="174.3" y2="224.2" xlink:href="#linear-gradient-4"/><linearGradient id="linear-gradient-10" x1="257.75" y1="161.59" x2="293.42" y2="148.35" xlink:href="#linear-gradient-4"/><linearGradient id="linear-gradient-11" x1="281.11" y1="308.42" x2="281.65" y2="244.28" xlink:href="#linear-gradient-4"/><linearGradient id="linear-gradient-12" x1="168.64" y1="174.8" x2="179.44" y2="156.66" xlink:href="#linear-gradient-4"/><linearGradient id="linear-gradient-13" x1="168.17" y1="225.64" x2="181.01" y2="240.72" xlink:href="#linear-gradient-4"/><linearGradient id="linear-gradient-14" x1="168" y1="178.93" x2="171.55" y2="231.47" xlink:href="#linear-gradient-4"/><linearGradient id="linear-gradient-15" x1="286.63" y1="178.93" x2="290.18" y2="231.47" xlink:href="#linear-gradient-4"/></defs><title>Rocketboy</title><path d="M326.43,89C312.76,78.3,295,74,277.69,73.53A130.07,130.07,0,0,0,217,86.7c-14.35,7-27.25,16.64-41,24.71-28.86,16.92-61.47,27.05-89.3,45.62S35.32,206.48,39.29,239.7c3.74,31.36,31.05,55.35,60.42,66.95s61.47,13.82,92.33,20.48c28.28,6.1,57.75,16,85.36,7.38,14.74-4.6,27.48-14.14,42-19.3,17.79-6.31,39.2-6.69,51.8-20.74,9.81-10.93,11.06-27.24,8.47-41.69-3-16.88-10.18-32.69-12.18-49.8-1.72-14.68,1.29-28.95.67-43.51C367.15,135.26,345,103.44,326.43,89Z" transform="translate(-38.85 -73.48)" fill="#68e1fd" opacity="0.18" style="isolation:isolate"/><path d="M201.36,264.68a34.33,34.33,0,0,0-32.25-9.8c-4.69,1.1-9.1,3.2-13.78,4.33a35.3,35.3,0,0,1-30.93-7.59,31.68,31.68,0,0,0,17.66,19.91c-8.08-.07-15.78-3.26-23-6.84-11-5.44-22.14-12-34.45-12.43C70.13,251.82,57,260,45.18,268.43a43,43,0,0,1,29.45-4.09c22,4.91,38.19,26.64,60.65,28.49,13.17,1.08,25.78-5,37.29-11.5a85.06,85.06,0,0,0-9.86,17.9c9.68-8.16,25.61-4.14,35.5-12.05A22.47,22.47,0,0,0,205.57,275a15.26,15.26,0,0,0,0-8.83c-1-2.81-3.54-5.21-6.52-5.36" transform="translate(-38.85 -73.48)" fill="#68e1fd" opacity="0.59" style="isolation:isolate"/><path d="M201.36,264.68a34.33,34.33,0,0,0-32.25-9.8c-4.69,1.1-9.1,3.2-13.78,4.33a35.3,35.3,0,0,1-30.93-7.59,31.68,31.68,0,0,0,17.66,19.91c-8.08-.07-15.78-3.26-23-6.84-11-5.44-22.14-12-34.45-12.43C70.13,251.82,57,260,45.18,268.43a43,43,0,0,1,29.45-4.09c22,4.91,38.19,26.64,60.65,28.49,13.17,1.08,25.78-5,37.29-11.5a85.06,85.06,0,0,0-9.86,17.9c9.68-8.16,25.61-4.14,35.5-12.05A22.47,22.47,0,0,0,205.57,275a15.26,15.26,0,0,0,0-8.83c-1-2.81-3.54-5.21-6.52-5.36" transform="translate(-38.85 -73.48)" fill="url(#linear-gradient)"/><path d="M200.36,269.37a18.31,18.31,0,0,0-17.22-5.23c-2.5.59-4.85,1.7-7.35,2.31a18.85,18.85,0,0,1-16.52-4.05A16.94,16.94,0,0,0,168.7,273c-4.31,0-8.42-1.75-12.29-3.65-5.9-2.91-11.82-6.44-18.4-6.64-7.72-.24-14.75,4.15-21,8.63a22.89,22.89,0,0,1,15.72-2.18c11.75,2.62,20.4,14.22,32.39,15.21,7,.58,13.77-2.68,19.91-6.14a45.41,45.41,0,0,0-5.26,9.56c5.16-4.36,13.67-2.21,19-6.43a12.05,12.05,0,0,0,3.93-6.51,8.13,8.13,0,0,0,0-4.71,4.17,4.17,0,0,0-3.49-2.86" transform="translate(-38.85 -73.48)" fill="url(#linear-gradient-2)"/><path d="M200.37,270.35a12.58,12.58,0,0,0-11.83-3.59c-1.72.4-3.34,1.17-5.06,1.58a13,13,0,0,1-11.35-2.78,11.65,11.65,0,0,0,6.48,7.31,20,20,0,0,1-8.45-2.51c-4-2-8.12-4.42-12.64-4.56-5.31-.17-10.14,2.85-14.46,5.93a15.73,15.73,0,0,1,10.81-1.5c8.07,1.8,14,9.78,22.25,10.45,4.83.4,9.46-1.84,13.68-4.22a31.83,31.83,0,0,0-3.61,6.57c3.55-3,9.4-1.52,13-4.42a8.28,8.28,0,0,0,2.71-4.47,5.67,5.67,0,0,0,0-3.24,2.85,2.85,0,0,0-2.39-2" transform="translate(-38.85 -73.48)" fill="url(#linear-gradient-3)"/><path d="M190.13,206.35a162.12,162.12,0,0,0-23.65,10,8.48,8.48,0,0,0-3.16,2.37,3,3,0,0,0,0,3.67c.84.86,2.2.87,3.4.81a176.09,176.09,0,0,0,44.12-7.87,2.77,2.77,0,0,0,1.31-.69c.68-.76.35-2-.12-2.88C207.37,202.68,198.47,203.59,190.13,206.35Z" transform="translate(-38.85 -73.48)" fill="#f3bd8d"/><path d="M255.59,245.64a1.12,1.12,0,0,0,1.16,1.57l4,.66a1.64,1.64,0,0,0,2.15-1.06c2-3.79,3.91-7.68,6.27-11.27,4.82-7.31,11.7-13.36,14.93-21.5a38.39,38.39,0,0,0,2-7.46c.71-4.09.8-8.87-2.23-11.7a2.17,2.17,0,0,0-1.56-.73,2.47,2.47,0,0,0-1.2.54c-3,2.08-7.58,4.14-9.89,7-1.82,2.29-3,5.86-4.25,8.5a136.17,136.17,0,0,0-8.5,22.55Q256.73,239.12,255.59,245.64Z" transform="translate(-38.85 -73.48)" fill="#f3bd8d"/><path d="M214.38,190.46c-1.78,2.36-3.55,4.71-5.5,6.92a55.45,55.45,0,0,1-6.07,5.9,2.38,2.38,0,0,0-.92,1.19,2.3,2.3,0,0,0,.8,1.84c2,2.23,4.07,4.38,6.25,6.42a4.35,4.35,0,0,0,6.16,1c10.27-5.18,19-12.92,29-18.62a3.63,3.63,0,0,1,1.37-.55,3.7,3.7,0,0,1,1.57.25,203.4,203.4,0,0,1,22.64,8.6,4.65,4.65,0,0,0,2.07.56,4.31,4.31,0,0,0,2.27-1.07,74.52,74.52,0,0,0,9.21-8.08,3.13,3.13,0,0,0,1-1.67,3.07,3.07,0,0,0-.86-2.09,62.53,62.53,0,0,0-19.87-17.12,46.11,46.11,0,0,0-20.24-6c-5.28-.18-13.14.35-17,4.62-1.91,2.13-3.2,5-4.67,7.39A126.72,126.72,0,0,1,214.38,190.46Z" transform="translate(-38.85 -73.48)" fill="#3f3d56"/><path d="M214.38,190.46c-1.78,2.36-3.55,4.71-5.5,6.92a55.45,55.45,0,0,1-6.07,5.9,2.38,2.38,0,0,0-.92,1.19,2.3,2.3,0,0,0,.8,1.84c2,2.23,4.07,4.38,6.25,6.42a4.35,4.35,0,0,0,6.16,1c10.27-5.18,19-12.92,29-18.62a3.63,3.63,0,0,1,1.37-.55,3.7,3.7,0,0,1,1.57.25,203.4,203.4,0,0,1,22.64,8.6,4.65,4.65,0,0,0,2.07.56,4.31,4.31,0,0,0,2.27-1.07,74.52,74.52,0,0,0,9.21-8.08,3.13,3.13,0,0,0,1-1.67,3.07,3.07,0,0,0-.86-2.09,62.53,62.53,0,0,0-19.87-17.12,46.11,46.11,0,0,0-20.24-6c-5.28-.18-13.14.35-17,4.62-1.91,2.13-3.2,5-4.67,7.39A126.72,126.72,0,0,1,214.38,190.46Z" transform="translate(-38.85 -73.48)" fill="url(#linear-gradient-4)"/><path d="M208.1,171c2.78-.57,5.44-1.65,8.23-2.12,7.82-1.32,15.69,2.24,23.61,1.93a1.53,1.53,0,0,0,1.22-.44,1.55,1.55,0,0,0,.19-1l-.3-7.41a16.31,16.31,0,0,0-1.1-6.3c-1.83-4-6.6-5.84-10.95-5.58s-8.39,2.21-12.3,4.13L207,158.93c-2.23,1.1-5.27,2.24-6.66,4.48-.88,1.44-1.41,5.1-.39,6.49C201.38,171.92,206.07,171.36,208.1,171Z" transform="translate(-38.85 -73.48)" fill="#3f3d56"/><path d="M208.1,171c2.78-.57,5.44-1.65,8.23-2.12,7.82-1.32,15.69,2.24,23.61,1.93a1.53,1.53,0,0,0,1.22-.44,1.55,1.55,0,0,0,.19-1l-.3-7.41a16.31,16.31,0,0,0-1.1-6.3c-1.83-4-6.6-5.84-10.95-5.58s-8.39,2.21-12.3,4.13L207,158.93c-2.23,1.1-5.27,2.24-6.66,4.48-.88,1.44-1.41,5.1-.39,6.49C201.38,171.92,206.07,171.36,208.1,171Z" transform="translate(-38.85 -73.48)" fill="url(#linear-gradient-5)"/><path d="M308.8,123.71a2.39,2.39,0,0,1,.48,1.49,1.41,1.41,0,0,1-1.09.94c-.49.12-1,.09-1.5.17-1.88.32-3.1,2.07-4.21,3.62s-2.65,3.17-4.55,3a11.31,11.31,0,0,1-2.7-1,9,9,0,0,0-7.33,1c-1,.58-2.19,1.32-3.36,1a3.45,3.45,0,0,1-2.16-2.27,13,13,0,0,1-.76-5.23,4.58,4.58,0,0,1,.36-1.91c.46-1,1.44-1.5,2.15-2.28a9.79,9.79,0,0,0,1.38-2.14,60,60,0,0,1,4-6.37c2-2.83,4.57-5.65,8-6.4a11.12,11.12,0,0,1,8.2,1.88c2.14,1.38,3.17,4.12,3.34,6.62S307.46,121.1,308.8,123.71Z" transform="translate(-38.85 -73.48)" fill="#f3bd8d"/><path d="M311.22,110.84c.88,1,1.82,2.22,1.36,3.44a2.7,2.7,0,0,1-2.7,1.42c-2.15-.1-4-1.56-5.89-2.5a13.16,13.16,0,0,0-7-1.27,1.8,1.8,0,0,0-.8.22,2,2,0,0,0-.62.86l-2.46,5.32c-.5-.41-.41-1.18-.33-1.82s-.06-1.48-.69-1.64a1.17,1.17,0,0,0-.75.13,2.92,2.92,0,0,0-1.52,3.44c.11.34.25.77,0,1a.94.94,0,0,1-.62.11c-1.06,0-1.85.92-2.56,1.71s-1.68,1.59-2.7,1.33a.9.9,0,0,1-.57-.37,1.26,1.26,0,0,1,0-.9l.43-2.34a3.4,3.4,0,0,0-.09-2.23,4.15,4.15,0,0,0-1.86-1.42c-.7-.39-1.42-1-1.41-1.78a2,2,0,0,1,1.39-1.61,22.1,22.1,0,0,0,2.13-.7,4.84,4.84,0,0,1,.21-3.92,5,5,0,0,1,2.6-1.61,37.81,37.81,0,0,1,7.49-1.71,14,14,0,0,1,6.27.38,17.75,17.75,0,0,1,2.6,1.25c0,.41,3.91,2.17,4.4,2.45A13.09,13.09,0,0,1,311.22,110.84Z" transform="translate(-38.85 -73.48)" fill="#3f3d56"/><path d="M311.58,108l-.1-2.6a5.74,5.74,0,0,0-3.12-5.67,23.14,23.14,0,0,0-5.49-3.26,12.28,12.28,0,0,0-10.69,1.17,17.51,17.51,0,0,0-5.53,6.24,4.42,4.42,0,0,1-1.58,1.93,4.29,4.29,0,0,1-1.74.34c-3.51.18-7.29.29-10.2-1.66a2.8,2.8,0,0,0-1.55-.67,1.55,1.55,0,0,0-1.1,2.09,3.63,3.63,0,0,0,2,1.81c3.29,1.59,7.09,1.56,10.75,1.72,6.08.28,12.12,1.19,18.16,2a60.74,60.74,0,0,0,7.74.64C311.38,112.1,311.66,110,311.58,108Z" transform="translate(-38.85 -73.48)" fill="#68e1fd"/><path d="M311.58,108l-.1-2.6a5.74,5.74,0,0,0-3.12-5.67,23.14,23.14,0,0,0-5.49-3.26,12.28,12.28,0,0,0-10.69,1.17,17.51,17.51,0,0,0-5.53,6.24,4.42,4.42,0,0,1-1.58,1.93,4.29,4.29,0,0,1-1.74.34c-3.51.18-7.29.29-10.2-1.66a2.8,2.8,0,0,0-1.55-.67,1.55,1.55,0,0,0-1.1,2.09,3.63,3.63,0,0,0,2,1.81c3.29,1.59,7.09,1.56,10.75,1.72,6.08.28,12.12,1.19,18.16,2a60.74,60.74,0,0,0,7.74.64C311.38,112.1,311.66,110,311.58,108Z" transform="translate(-38.85 -73.48)" fill="url(#linear-gradient-6)"/><path d="M285.2,132.83c-1.91,6.57-9.11,10.32-11.76,16.62-.63,1.5-1,3.09-1.49,4.63-1.92,5.81-6,10.65-8.33,16.31-.81,2-1.47,4.15-3.14,5.48a7,7,0,0,1-4.79,1.28c-6.26-.39-11.08-6.16-17.29-7-3.69-.5-7.36.81-10.86,2.11a105.68,105.68,0,0,1,2.72-17.47,36.71,36.71,0,0,1,8.1-15.55c1.95-2.1,4.22-3.89,6.08-6.07,1.15-1.35,7.85,2.2,9.16,1,1.1-1-3.31-6.81-2-7.46a57.42,57.42,0,0,1,13.88-4.21c5.09-1,10.67-1.87,15.25.59a10.12,10.12,0,0,1,5,6,7.84,7.84,0,0,1-1.82,7.49" transform="translate(-38.85 -73.48)" fill="#fff"/><path d="M313.45,181c.55.22,1.11.41,1.67.62a15.91,15.91,0,0,1,5.05,3.17,23.73,23.73,0,0,1,3.48,3.88,9.32,9.32,0,0,1,.42,9.77,2.14,2.14,0,0,1-1.16,1.06,2.45,2.45,0,0,1-2.14-.86,23.91,23.91,0,0,1-4.94-6.2c-1-1.82-2.2-4.07-4.28-4.12a8.32,8.32,0,0,1-1.41,0,3.27,3.27,0,0,1-1.31-.76c-5-4.07-9.78-8.59-15.69-11.14-2.82-1.22-6-2.1-7.82-4.6A1.1,1.1,0,0,1,285,171c.43-2.79,3.72-6.76,6.7-6.55,2.36.18,3.43,2.07,5.06,3.41C298.7,169.46,313.34,181,313.45,181Z" transform="translate(-38.85 -73.48)" fill="#f3bd8d"/><path d="M244.31,157.74c-7.48.15-15-.65-22.41.67a39.48,39.48,0,0,0-19.69,9.78,3,3,0,0,1-1.45.9c-1,.16-1.83-.74-2.35-1.61-2.4-4-2.39-9-2-13.66.46-5.5,1.43-11.17,4.53-15.74a13.27,13.27,0,0,1,3.92-3.94,17.13,17.13,0,0,1,7.65-2.1c8.9-.75,17.79.9,26.7,1.38a19.22,19.22,0,0,0,7.56-.69c3.56-1.29,6.15-4.37,9.37-6.35,4.08-2.51,9-3.18,13.76-3.58a20.92,20.92,0,0,1,8,.42c2.55.79,4.92,2.71,5.51,5.32s-.64,5.19-1.91,7.51a23.24,23.24,0,0,1-3.65,5.28c-2.39,2.41-5.54,3.8-8.36,5.63-2.4,1.57-3.73,3.55-5.69,5.49C259.16,157,250.42,157.61,244.31,157.74Z" transform="translate(-38.85 -73.48)" fill="#68e1fd"/><path d="M244.31,157.74c-7.48.15-15-.65-22.41.67a39.48,39.48,0,0,0-19.69,9.78,3,3,0,0,1-1.45.9c-1,.16-1.83-.74-2.35-1.61-2.4-4-2.39-9-2-13.66.46-5.5,1.43-11.17,4.53-15.74a13.27,13.27,0,0,1,3.92-3.94,17.13,17.13,0,0,1,7.65-2.1c8.9-.75,17.79.9,26.7,1.38a19.22,19.22,0,0,0,7.56-.69c3.56-1.29,6.15-4.37,9.37-6.35,4.08-2.51,9-3.18,13.76-3.58a20.92,20.92,0,0,1,8,.42c2.55.79,4.92,2.71,5.51,5.32s-.64,5.19-1.91,7.51a23.24,23.24,0,0,1-3.65,5.28c-2.39,2.41-5.54,3.8-8.36,5.63-2.4,1.57-3.73,3.55-5.69,5.49C259.16,157,250.42,157.61,244.31,157.74Z" transform="translate(-38.85 -73.48)" fill="url(#linear-gradient-7)"/><path d="M253.88,243.63a35.06,35.06,0,0,0-3.16,9.22c-.21,1.13-.3,2.49.57,3.23a3.45,3.45,0,0,0,2.24.57l21.28.46a2.14,2.14,0,0,0,1.39-.3,1.65,1.65,0,0,0,.48-1.29c0-2.08-1.54-3.88-3.32-5s-3.84-1.64-5.68-2.62a2.77,2.77,0,0,1-.84-.63c-.91-1.12.16-2.68.67-4a1.09,1.09,0,0,0,.1-.53,1,1,0,0,0-1-.73c-1.44-.08-2.46,1.51-3.88,1.75a4.51,4.51,0,0,1-1.85-.22C259.8,243.26,253.88,240.69,253.88,243.63Z" transform="translate(-38.85 -73.48)" fill="#3f3d56"/><path d="M163.73,213.37a7.61,7.61,0,0,0-3.62.89,7.8,7.8,0,0,0-2.29,2.79,96.25,96.25,0,0,0-5.48,11.17c-.71,1.73-1.35,3.77-.41,5.38a4.25,4.25,0,0,0,4.17,1.77,11.52,11.52,0,0,0,4.4-1.78,22.86,22.86,0,0,0,5.28-3.92c1.23-1.32,2.29-3,4-3.54,1.3-.43,2.81-.16,4-.83a.92.92,0,0,0,.48-.51c.11-.42-.3-.78-.67-1L172,222.7a5.12,5.12,0,0,1-1.6-1.43c-1.47-2.29,1.22-5,.18-7.14C169.68,212.28,165.47,213.25,163.73,213.37Z" transform="translate(-38.85 -73.48)" fill="#3f3d56"/><path d="M253.88,243.63a35.06,35.06,0,0,0-3.16,9.22c-.21,1.13-.3,2.49.57,3.23a3.45,3.45,0,0,0,2.24.57l21.28.46a2.14,2.14,0,0,0,1.39-.3,1.65,1.65,0,0,0,.48-1.29c0-2.08-1.54-3.88-3.32-5s-3.84-1.64-5.68-2.62a2.77,2.77,0,0,1-.84-.63c-.91-1.12.16-2.68.67-4a1.09,1.09,0,0,0,.1-.53,1,1,0,0,0-1-.73c-1.44-.08-2.46,1.51-3.88,1.75a4.51,4.51,0,0,1-1.85-.22C259.8,243.26,253.88,240.69,253.88,243.63Z" transform="translate(-38.85 -73.48)" fill="url(#linear-gradient-8)"/><path d="M163.73,213.37a7.61,7.61,0,0,0-3.62.89,7.8,7.8,0,0,0-2.29,2.79,96.25,96.25,0,0,0-5.48,11.17c-.71,1.73-1.35,3.77-.41,5.38a4.25,4.25,0,0,0,4.17,1.77,11.52,11.52,0,0,0,4.4-1.78,22.86,22.86,0,0,0,5.28-3.92c1.23-1.32,2.29-3,4-3.54,1.3-.43,2.81-.16,4-.83a.92.92,0,0,0,.48-.51c.11-.42-.3-.78-.67-1L172,222.7a5.12,5.12,0,0,1-1.6-1.43c-1.47-2.29,1.22-5,.18-7.14C169.68,212.28,165.47,213.25,163.73,213.37Z" transform="translate(-38.85 -73.48)" fill="url(#linear-gradient-9)"/><path d="M276.68,131.27c-.05-.31.49-.17.68.08,3.38,4.73,5.25,10.34,7.44,15.72s4.89,10.81,9.43,14.44c1.86,1.5,4.21,3,4.33,5.41.08,1.86-1.28,3.43-2.55,4.78-3,3.17-6.53,6.58-10.87,6.42-.46-1.7-2.07-2.77-3.42-3.89-5.29-4.37-7.84-11.21-12.39-16.35-2.26-2.55-5.07-4.78-6.36-7.93-1.73-4.26-.25-9.13,1.74-13.27a18.33,18.33,0,0,1,3.83-5.7,7.93,7.93,0,0,1,6.27-2.28,5.12,5.12,0,0,1,4.49,4.5" transform="translate(-38.85 -73.48)" fill="#68e1fd"/><path d="M276.68,131.27c-.05-.31.49-.17.68.08,3.38,4.73,5.25,10.34,7.44,15.72s4.89,10.81,9.43,14.44c1.86,1.5,4.21,3,4.33,5.41.08,1.86-1.28,3.43-2.55,4.78-3,3.17-6.53,6.58-10.87,6.42-.46-1.7-2.07-2.77-3.42-3.89-5.29-4.37-7.84-11.21-12.39-16.35-2.26-2.55-5.07-4.78-6.36-7.93-1.73-4.26-.25-9.13,1.74-13.27a18.33,18.33,0,0,1,3.83-5.7,7.93,7.93,0,0,1,6.27-2.28,5.12,5.12,0,0,1,4.49,4.5" transform="translate(-38.85 -73.48)" fill="url(#linear-gradient-10)"/><path d="M362.89,280c-10.35,7-33,11.78-33,11.78l-129.53.55-.27-17L199.85,257c2.75-.55,127.32-2.21,127.32-2.21a65.54,65.54,0,0,1,36.94,12.69C370.35,272,368.29,276.29,362.89,280Z" transform="translate(-38.85 -73.48)" fill="#68e1fd"/><path d="M362.89,280c-10.35,7-33,11.78-33,11.78l-129.53.55-.55-16.94.28,0c7.1-.28,127-1,127-1A122.46,122.46,0,0,1,362.89,280Z" transform="translate(-38.85 -73.48)" fill="url(#linear-gradient-11)"/><polygon points="161 183.52 147.49 164.15 161.35 164.15 191.31 182.9 161 183.52" fill="#68e1fd"/><polygon points="161.68 218.2 148.17 237.26 162.03 237.26 191.99 218.51 161.68 218.2" fill="#68e1fd"/><polygon points="161 183.52 147.49 164.15 161.35 164.15 191.31 182.9 161 183.52" fill="url(#linear-gradient-12)"/><polygon points="161.68 218.2 148.17 237.26 162.03 237.26 191.99 218.51 161.68 218.2" fill="url(#linear-gradient-13)"/><rect x="166.45" y="181.37" width="5.98" height="37.5" fill="url(#linear-gradient-14)"/><rect x="285.07" y="181.37" width="5.98" height="37.5" fill="url(#linear-gradient-15)"/></svg>