<svg id="Layer_1" data-name="Layer 1" xmlns="http://www.w3.org/2000/svg" xmlns:xlink="http://www.w3.org/1999/xlink" viewBox="0 0 377.89 377.89"><defs><linearGradient id="linear-gradient" x1="343.58" y1="150.19" x2="331.72" y2="151.42" gradientUnits="userSpaceOnUse"><stop offset="0" stop-color="#e5c5d5"/><stop offset="0.42" stop-color="#ead4d1"/><stop offset="1" stop-color="#f0e9cb"/></linearGradient><linearGradient id="linear-gradient-2" x1="325.06" y1="146.27" x2="372.86" y2="169.99" xlink:href="#linear-gradient"/><linearGradient id="linear-gradient-3" x1="148.51" y1="132.33" x2="162.18" y2="132.33" gradientUnits="userSpaceOnUse"><stop offset="0" stop-opacity="0"/><stop offset="0.99"/></linearGradient><linearGradient id="linear-gradient-4" x1="192.71" y1="200.65" x2="227.1" y2="200.65" xlink:href="#linear-gradient"/><linearGradient id="linear-gradient-5" x1="186.34" y1="189.91" x2="185.64" y2="254.12" xlink:href="#linear-gradient-3"/><linearGradient id="linear-gradient-6" x1="328.03" y1="176.75" x2="305.92" y2="176.49" xlink:href="#linear-gradient-3"/><linearGradient id="linear-gradient-7" x1="328.84" y1="168.89" x2="360.76" y2="203.61" xlink:href="#linear-gradient-3"/><linearGradient id="linear-gradient-8" x1="330.49" y1="176.03" x2="338.6" y2="126.57" xlink:href="#linear-gradient-3"/><linearGradient id="linear-gradient-9" x1="178.86" y1="186.34" x2="160.81" y2="235.67" xlink:href="#linear-gradient-3"/><linearGradient id="linear-gradient-10" x1="169.95" y1="148.41" x2="174.91" y2="169.91" xlink:href="#linear-gradient"/><linearGradient id="linear-gradient-11" x1="174.44" y1="152" x2="214.04" y2="124.26" xlink:href="#linear-gradient"/><linearGradient id="linear-gradient-12" x1="170.54" y1="121.29" x2="183.54" y2="151.21" xlink:href="#linear-gradient"/><linearGradient id="linear-gradient-13" x1="159.64" y1="125.94" x2="192.3" y2="125.94" xlink:href="#linear-gradient-3"/><linearGradient id="linear-gradient-14" x1="144.62" y1="200.28" x2="184.76" y2="200.28" xlink:href="#linear-gradient"/><linearGradient id="linear-gradient-15" x1="299.47" y1="131.54" x2="338.72" y2="135.47" xlink:href="#linear-gradient"/><linearGradient id="linear-gradient-16" x1="312.19" y1="121.89" x2="348.82" y2="121.89" xlink:href="#linear-gradient-3"/><linearGradient id="linear-gradient-17" x1="342.35" y1="177.11" x2="325.21" y2="172.53" xlink:href="#linear-gradient-3"/><linearGradient id="linear-gradient-18" x1="313.98" y1="156.35" x2="351.14" y2="275.69" xlink:href="#linear-gradient-3"/><linearGradient id="linear-gradient-19" x1="319.15" y1="208.78" x2="338.46" y2="208.78" xlink:href="#linear-gradient"/><linearGradient id="linear-gradient-20" x1="305.02" y1="208.82" x2="321.65" y2="208.82" xlink:href="#linear-gradient"/><linearGradient id="linear-gradient-21" x1="247.58" y1="299.44" x2="247.58" y2="160.04" gradientTransform="translate(495.16 492.35) rotate(180)" xlink:href="#linear-gradient-3"/><linearGradient id="linear-gradient-22" x1="323.77" y1="173.47" x2="335.81" y2="179.75" xlink:href="#linear-gradient-3"/><linearGradient id="linear-gradient-23" x1="164.75" y1="141.04" x2="167.38" y2="141.04" xlink:href="#linear-gradient"/><linearGradient id="linear-gradient-24" x1="206.01" y1="176.62" x2="169.77" y2="192.71" xlink:href="#linear-gradient-3"/><linearGradient id="linear-gradient-25" x1="333.55" y1="135" x2="355.41" y2="144.69" xlink:href="#linear-gradient"/></defs><title>News Presenter (ok)</title><circle cx="188.95" cy="188.95" r="188.95" fill="#68e1fd" opacity="0.18" style="isolation:isolate"/><path d="M338.88,152.35a5,5,0,0,1-.05,2.25,4.67,4.67,0,0,1-1,2,7,7,0,0,1-7.65,2,3.66,3.66,0,0,1-2.27-2,5,5,0,0,1,.41-3.37,2.29,2.29,0,0,1,.43-.8,2.44,2.44,0,0,1,1.2-.54c3.43-.88,7.59-7.09,10.42-9C339.64,145.46,338.34,150.08,338.88,152.35Z" transform="translate(-60.85 -0.48)" fill="url(#linear-gradient)"/><path d="M336.74,151.23a10.6,10.6,0,0,1-1.33,2,7.09,7.09,0,0,1-5.13,2.17c-.75,0-1.64-.14-2-.82a3.06,3.06,0,0,1-.12-1.17,4.24,4.24,0,0,1,.1-1.78,2.89,2.89,0,0,1,1.38-1.24c2.63-1.45,5.36-2.73,8.08-4,.35-.17,1.11-.53,1.39-.08s-.35,1.14-.54,1.49C338,149,337.37,150.1,336.74,151.23Z" transform="translate(-60.85 -0.48)" fill="url(#linear-gradient-2)"/><circle cx="186.58" cy="87.66" r="54.18" fill="#68e1fd" opacity="0.46" style="isolation:isolate"/><path d="M151,192.74a15,15,0,0,0,4.79,1.31,3,3,0,0,0,1.22-.13,1.33,1.33,0,0,0,.84-.84,1.63,1.63,0,0,0-.37-1.32,6.8,6.8,0,0,0-2.46-1.87,19.88,19.88,0,0,0-7.69-2.34c-.61,0-2.66-.28-2.63.77s1.83,2.05,2.52,2.5A21.32,21.32,0,0,0,151,192.74Z" transform="translate(-60.85 -0.48)" fill="#3e3e54"/><path d="M149.29,128.1a7,7,0,0,0-.42,6.21,8.29,8.29,0,0,0,4.51,4.39c1.81.76,4.12.83,5.55-.53a6,6,0,0,0,1.16-1.66,27.64,27.64,0,0,0,1.51-3.33c1.19-3.15-.37-6-3.52-7.12S151.25,125,149.29,128.1Z" transform="translate(-60.85 -0.48)" fill="#3e3e54"/><path d="M149.47,128.12a6.94,6.94,0,0,0-.43,6.21,8.32,8.32,0,0,0,4.51,4.39c1.82.76,4.13.83,5.56-.52a6.49,6.49,0,0,0,1.16-1.67,31.15,31.15,0,0,0,1.51-3.33c1.19-3.15-.38-6-3.52-7.12S151.43,125,149.47,128.12Z" transform="translate(-60.85 -0.48)" fill="url(#linear-gradient-3)"/><path d="M137,202.83c-1.66,2.91-1.52,6.58-.39,9.74a.77.77,0,0,0,.23.39.82.82,0,0,0,.54.09L154.12,212c-.47,0-3.54-6.21-4-6.92-1-1.69-2.05-3.94-3.59-5.24C143.55,197.28,138.69,199.89,137,202.83Z" transform="translate(-60.85 -0.48)" fill="#3e3e54"/><path d="M197.82,186.85a77,77,0,0,1,4.23,9.89,16.29,16.29,0,0,0,1.64,3.75,2.68,2.68,0,0,0,.86.88,2.76,2.76,0,0,0,1.24.29,13.74,13.74,0,0,0,5.23-1.22,9.54,9.54,0,0,0,2.52-1.24,12.46,12.46,0,0,0,2.12-2.45,21.18,21.18,0,0,1,2.86-3.05,8.6,8.6,0,0,1,3.9-2.15,4,4,0,0,1,4,1.41,5.51,5.51,0,0,1,.61,3.61,8.06,8.06,0,0,1-.89,3.28c-1.34,2.33-4.27,3.18-6.21,5a20.32,20.32,0,0,0-1.61,1.85,31.68,31.68,0,0,1-5.15,4.87,13.76,13.76,0,0,1-3.26,2,13.12,13.12,0,0,1-3.67.77,21.4,21.4,0,0,1-7.73-.6,5.79,5.79,0,0,1-3.07-1.75,7.05,7.05,0,0,1-1.18-3.46,109.81,109.81,0,0,1-1.56-14.66c0-2.13.18-4.54,1.83-5.88a5.92,5.92,0,0,1,4.87-.78" transform="translate(-60.85 -0.48)" fill="url(#linear-gradient-4)"/><path d="M371.37,198.14a10,10,0,0,1,5.49,6.68,22.53,22.53,0,0,1,.31,8.89,72.56,72.56,0,0,0-16.28-2l1.06-9.06c.26-2.19.14-4.16,2.3-4.95A11.71,11.71,0,0,1,371.37,198.14Z" transform="translate(-60.85 -0.48)" fill="#3e3e54"/><path d="M52.51,208H319.62a7,7,0,0,1,7,7v0a0,0,0,0,1,0,0H45.53a0,0,0,0,1,0,0v0a7,7,0,0,1,7-7Z" fill="#68e1fd"/><path d="M52.51,208H319.62a7,7,0,0,1,7,7v0a0,0,0,0,1,0,0H45.53a0,0,0,0,1,0,0v0a7,7,0,0,1,7-7Z" fill="url(#linear-gradient-5)"/><path d="M346.24,157.56a18.44,18.44,0,0,1,13.43,14.95c2.29,12.62,5.73,35.55,4.58,39.56H334.44c-7.84,0-15.16.75-23,1-2.77.1-5.67.16-8.14-1.1a2.59,2.59,0,0,1-1-.82,2.84,2.84,0,0,1-.32-1.63c0-5.17,1.27-10.24,2.5-15.25l4.92-20a33.26,33.26,0,0,1,2.56-7.63,16.61,16.61,0,0,1,10.53-8.2c4.61-1.13,10.08-1.15,14.83-1C340,157.58,343.53,157.56,346.24,157.56Z" transform="translate(-60.85 -0.48)" fill="#68e1fd"/><path d="M325.39,156.26,321.78,158a1.82,1.82,0,0,0-.53.33,1.85,1.85,0,0,0-.44.69c-1.17,2.67-1.41,5.67-2.54,8.35a1.18,1.18,0,0,0-.12,1,1.07,1.07,0,0,0,.39.37l2,1.34c.1.06.21.14.22.26a.41.41,0,0,1-.14.31l-3,3.65c0,3.45,1.72,6.84,3.45,9.84s5.31,9.67,6.14,13C325.19,185,323.08,168.42,325.39,156.26Z" transform="translate(-60.85 -0.48)" fill="url(#linear-gradient-6)"/><path d="M349.45,166.58a7.35,7.35,0,0,1-.33,4.38,3.8,3.8,0,0,1-3.5,2.32c.29,1.42,2.07,2.22,2.19,3.66a3.5,3.5,0,0,1-1.26,2.47l-16.84,18.27c.4-.8-1.32-.81-1-1.63a161.9,161.9,0,0,0,8-23.57c.65-2.73,1.41-5.43,2.26-8.1.44-1.38,1.29-6.17,2.84-6.68C345.36,156.54,349,164.21,349.45,166.58Z" transform="translate(-60.85 -0.48)" fill="url(#linear-gradient-7)"/><path d="M332,158a16.12,16.12,0,0,1-2.49-.39c-.92-.26-1.75-.77-2.66-1.09a.79.79,0,0,0-.62-.05.87.87,0,0,0-.34.37,12.13,12.13,0,0,0-1.42,3.36,23.05,23.05,0,0,0-.56,5.37q-.09,4.78.2,9.57a22.58,22.58,0,0,0,.46,3.77c.31,1.35.85,2.64,1.15,4,.22,1,.31,2,.52,2.92a23.7,23.7,0,0,0,2.08,5.22c1.38-.73,2.1-2.28,2.72-3.72l9.55-22.1a5.39,5.39,0,0,0,.63-2.67c-.23-1.9-1.87-2-3.27-2.57A24.34,24.34,0,0,0,332,158Z" transform="translate(-60.85 -0.48)" fill="#fff" style="isolation:isolate"/><path d="M332,158a16.12,16.12,0,0,1-2.49-.39c-.92-.26-1.75-.77-2.66-1.09a.79.79,0,0,0-.62-.05.87.87,0,0,0-.34.37,12.13,12.13,0,0,0-1.42,3.36,23.05,23.05,0,0,0-.56,5.37q-.09,4.78.2,9.57a22.58,22.58,0,0,0,.46,3.77c.31,1.35.85,2.64,1.15,4,.22,1,.31,2,.52,2.92a23.7,23.7,0,0,0,2.08,5.22c1.38-.73,2.1-2.28,2.72-3.72l9.55-22.1a5.39,5.39,0,0,0,.63-2.67c-.23-1.9-1.87-2-3.27-2.57A24.34,24.34,0,0,0,332,158Z" transform="translate(-60.85 -0.48)" fill="url(#linear-gradient-8)"/><path d="M200.17,185.62a2.33,2.33,0,0,1-.89,1.1,44.18,44.18,0,0,1-3.95,2.82A11.55,11.55,0,0,1,194,196c-.65,1.18-1.5,2.24-2.12,3.44a10,10,0,0,0-1.07,3.41c-.38,3,.12,6,.17,9a1.07,1.07,0,0,1-1.19,1.32,206.37,206.37,0,0,1-32.13.1,1.75,1.75,0,0,1-1.18-.41,1.57,1.57,0,0,1-.29-.88c1.85.16,3.75.17,5.61.17l21.11,0a2,2,0,0,0,1.66-.53,1.75,1.75,0,0,0,.2-1.19c-.45-3.32-4-5.36-7.36-5.73a15,15,0,0,0-3.78.06,11.78,11.78,0,0,1-2,.22,8.92,8.92,0,0,1-2.9-.74q-5.52-2.14-11.06-4.25a31,31,0,0,0,.65-5.65,2.21,2.21,0,0,0-1.24-2.27c-.3-.21-.6-.41-.92-.6a22.32,22.32,0,0,0-9.42-3.19c-.35,0-.69-.07-1-.09s-.76-.06-.95-.36a1,1,0,0,1-.12-.58,26.63,26.63,0,0,1,6.25-18c4.26-4.92,10.84-9,17.34-9.1,2.07,0,3.86,1.12,5.93,1.19s4.46-.63,6.51,0c2.58.7,5.22,1.45,7.33,3.1,2.68,2.1,4.1,5.36,5.8,8.32,2.21,3.86,5.06,7.43,6.33,11.69A2.14,2.14,0,0,1,200.17,185.62Z" transform="translate(-60.85 -0.48)" fill="#68e1fd"/><path d="M158.05,193q-.23-4.37,0-8.72a9,9,0,0,1,1.09,3.65,11.59,11.59,0,0,0,6.54,8.1c1.72.76,3.8,1.24,4.7,2.9a13.55,13.55,0,0,0,.71,1.49,3.43,3.43,0,0,0,2.35,1.22c3.17.49,6.65-.89,9.49.6,1.1.57,7.07-.29,7.87.65,0,0-.11,7.31.13,9.47.06.55-3.79,0-4.45-.05a104.78,104.78,0,0,1-13.58-1.71,34.9,34.9,0,0,1-12.6-5.15,6.7,6.7,0,0,1-2.35-2.41,7.6,7.6,0,0,1-.44-3.91c.17-2.49.38-5,.65-7.44" transform="translate(-60.85 -0.48)" fill="url(#linear-gradient-9)"/><path d="M184.54,211.67a2,2,0,0,1-1.66.53l-21.11,0c-1.86,0-3.76,0-5.61-.17h0c-.47-4,.67-8,1.44-12q5.53,2.11,11.06,4.25a8.92,8.92,0,0,0,2.9.74,11.78,11.78,0,0,0,2-.22,15,15,0,0,1,3.78-.06c3.33.37,6.91,2.41,7.36,5.73A1.75,1.75,0,0,1,184.54,211.67Z" transform="translate(-60.85 -0.48)" fill="#68e1fd"/><path d="M166.25,144.93c.36,4.3.72,10.21.76,14.52L163.85,161a.92.92,0,0,0-.42.33,1,1,0,0,0-.06.52l.54,7.21a7.72,7.72,0,0,0,.93,3.72c1,1.52,2.93,2.11,4.72,2.47a16.79,16.79,0,0,0,5.6.39,27.07,27.07,0,0,0,3.73-.92c1.73-.48,3.49-.86,5.25-1.18a3.08,3.08,0,0,0,1.46-.54,2.64,2.64,0,0,0,.45-2.63,22.11,22.11,0,0,0-3.74-7.14A6,6,0,0,0,180,161c-.51-.22-1.07-.3-1.6-.48a2,2,0,0,1-1.26-1,2.59,2.59,0,0,1-.1-.88v-4.31a6.08,6.08,0,0,0-.15-1.65,5.27,5.27,0,0,0-1.16-1.9,18,18,0,0,0-4.64-3.82,4.69,4.69,0,0,0-1.71-.68c-.61-.09-2.73-1.74-3.16-1.3" transform="translate(-60.85 -0.48)" fill="url(#linear-gradient-10)"/><path d="M171.15,156.33a6.34,6.34,0,0,0,5.2,2.62.92.92,0,0,0,.56-.19,1.14,1.14,0,0,0,.29-.89l.13-4.72a1.47,1.47,0,0,0-1.09-1.7c-1.22-.62-7.6-4.79-8.5-3.2-.49.87.74,3.21,1.09,4.06A14.78,14.78,0,0,0,171.15,156.33Z" transform="translate(-60.85 -0.48)" fill="url(#linear-gradient-11)"/><path d="M190.68,129a30.93,30.93,0,0,1,.43,6.94,35.17,35.17,0,0,1-1.22,10A13.68,13.68,0,0,1,184,153.8a11.64,11.64,0,0,1-11,0,14.57,14.57,0,0,1-6.94-8.72,4.1,4.1,0,0,1-3.39-2.22,5.77,5.77,0,0,1-.37-4.13c.27-1,.9-2,1.91-2.15s1.88.74,2.55,1.52c-.62-4,.15-8.27,2.79-11.28a13.89,13.89,0,0,1,7.55-4.16c2.71-.59,6.92-1.18,9.62-.28C189.08,123.18,190.24,126.85,190.68,129Z" transform="translate(-60.85 -0.48)" fill="url(#linear-gradient-12)"/><path d="M191.27,121.46a22.9,22.9,0,0,1,1,8l0,3.3H171.16a.86.86,0,0,1-.48-.09.85.85,0,0,1-.3-.46,16.64,16.64,0,0,1-.8-3.16c-1.34,2.34-1.12,5.22-1.27,7.91a1.34,1.34,0,0,1-.42,1.07.92.92,0,0,1-1.09-.15,7.67,7.67,0,0,0-.75-.64c-1.5-1-2.75-.85-3.69,1.54-3.9-2.72-2.54-10.2-2.25-12.81a16,16,0,0,1,.7-3.57,12.12,12.12,0,0,1,5.41-6.2c3.91-2.34,8.58-3.06,13.13-3a11.07,11.07,0,0,1,3.89.53,5.18,5.18,0,0,1,2.41,1.82,4.24,4.24,0,0,0,1.75,1.37A8.58,8.58,0,0,1,191.27,121.46Z" transform="translate(-60.85 -0.48)" fill="#3e3e54"/><path d="M191.27,121.46a22.9,22.9,0,0,1,1,8l0,3.3H171.16a.86.86,0,0,1-.48-.09.85.85,0,0,1-.3-.46,16.64,16.64,0,0,1-.8-3.16c-1.34,2.34-1.12,5.22-1.27,7.91a1.34,1.34,0,0,1-.42,1.07.92.92,0,0,1-1.09-.15,7.67,7.67,0,0,0-.75-.64c-1.5-1-2.75-.85-3.69,1.54-3.9-2.72-2.54-10.2-2.25-12.81a16,16,0,0,1,.7-3.57,12.12,12.12,0,0,1,5.41-6.2c3.91-2.34,8.58-3.06,13.13-3a11.07,11.07,0,0,1,3.89.53,5.18,5.18,0,0,1,2.41,1.82,4.24,4.24,0,0,0,1.75,1.37A8.58,8.58,0,0,1,191.27,121.46Z" transform="translate(-60.85 -0.48)" fill="url(#linear-gradient-13)"/><path d="M186.78,177.46a15.43,15.43,0,0,1-.85,5,7.11,7.11,0,0,1-3.23,3.87,9.31,9.31,0,0,1-3.13.84,13.32,13.32,0,0,1-4.32,0c-3.3-.64-6-3.14-7.68-6.05a35.23,35.23,0,0,1-3.28-9.49q7.56.26,15.14,0c1.25,0,2.5-.08,3.75-.14.72,0,2.18-.44,2.86,0C187.34,172.26,186.82,176.15,186.78,177.46Z" transform="translate(-60.85 -0.48)" fill="#fff"/><path d="M184.54,211.67a2,2,0,0,1-1.66.53l-21.11,0c-1.86,0-3.76,0-5.61-.17a19.27,19.27,0,0,1-6.28-1.52,8.61,8.61,0,0,1-5-5.23,10.8,10.8,0,0,1-.22-3.45,66,66,0,0,1,1.79-12.51c.09-.35.15-.7.22-1a22.32,22.32,0,0,1,9.42,3.19c0,2.1-1.81,4.34-1.67,6.58a1.12,1.12,0,0,0,.18.65,1.45,1.45,0,0,0,.61.37l2.39.92q5.53,2.11,11.06,4.25a8.92,8.92,0,0,0,2.9.74,11.78,11.78,0,0,0,2-.22,15,15,0,0,1,3.78-.06c3.33.37,6.91,2.41,7.36,5.73A1.75,1.75,0,0,1,184.54,211.67Z" transform="translate(-60.85 -0.48)" fill="url(#linear-gradient-14)"/><path d="M226.79,175.89a1.78,1.78,0,0,0-.09-.86,1.8,1.8,0,0,0-.91-.76c-7.12-3.58-15.43-3.55-23.4-3.45a111.42,111.42,0,0,1-7.19,41.51l24,.42a24.42,24.42,0,0,0,.5-5.07c.15-1.69.68-3.51,2.08-4.47a10.76,10.76,0,0,1-1.43-6.56,5.85,5.85,0,0,1,2.55-3.87c1.62-1.13,1.82-1.16,2.22-3.25A97.85,97.85,0,0,0,226.79,175.89Z" transform="translate(-60.85 -0.48)" fill="#fff"/><path d="M314.17,136.28c.12,4.45.47,9.27,3.4,12.63a11.74,11.74,0,0,0,8.89,3.75,17.4,17.4,0,0,0,9.34-3,13.67,13.67,0,0,0,4.59-4.61,9.94,9.94,0,0,1,1.6-2.59c.83-.79,2-1.12,2.82-1.95a4,4,0,0,0,1-2.59,4.27,4.27,0,0,0-2-4,2.85,2.85,0,0,0-3.94,1.24c.67-5,.2-10.61-3.25-14.31a15.16,15.16,0,0,0-5.13-3.43,22.82,22.82,0,0,0-9-1.92,11.54,11.54,0,0,0-5.95,1.39c-3.22,2-2.74,4.13-2.45,7.21C314.48,128.06,314.07,132.26,314.17,136.28Z" transform="translate(-60.85 -0.48)" fill="url(#linear-gradient-15)"/><path d="M312.24,114.17a5.55,5.55,0,0,1,.47-3.22,5.14,5.14,0,0,1,2-1.93,12.79,12.79,0,0,1,4.91-1.35A36.93,36.93,0,0,1,339.58,111c1.88.9,3.84,2.17,4.36,4.19a15.37,15.37,0,0,1,.14,3.26,1.36,1.36,0,0,0,.19.72c.28.38.82.39,1.28.48a3.59,3.59,0,0,1,2.36,2.11,10.17,10.17,0,0,1,.69,3.19,20.69,20.69,0,0,1,.08,5.33,7.48,7.48,0,0,1-2.41,4.63,1.86,1.86,0,0,1-1,.49c-.87.06-1.47-.85-2.26-1.24a2.8,2.8,0,0,0-2.61.26,8.36,8.36,0,0,0-2,1.88l-1.85-12.83a2.14,2.14,0,0,0-2.61-2.19l-14.62-.56c-2.06-.08-3.27.2-4.75-1.42A9.17,9.17,0,0,1,312.24,114.17Z" transform="translate(-60.85 -0.48)" fill="#3e3e54"/><path d="M312.24,114.17a5.55,5.55,0,0,1,.47-3.22,5.14,5.14,0,0,1,2-1.93,12.79,12.79,0,0,1,4.91-1.35A36.93,36.93,0,0,1,339.58,111c1.88.9,3.84,2.17,4.36,4.19a15.37,15.37,0,0,1,.14,3.26,1.36,1.36,0,0,0,.19.72c.28.38.82.39,1.28.48a3.59,3.59,0,0,1,2.36,2.11,10.17,10.17,0,0,1,.69,3.19,20.69,20.69,0,0,1,.08,5.33,7.48,7.48,0,0,1-2.41,4.63,1.86,1.86,0,0,1-1,.49c-.87.06-1.47-.85-2.26-1.24a2.8,2.8,0,0,0-2.61.26,8.36,8.36,0,0,0-2,1.88l-1.85-12.83a2.14,2.14,0,0,0-2.61-2.19l-14.62-.56c-2.06-.08-3.27.2-4.75-1.42A9.17,9.17,0,0,1,312.24,114.17Z" transform="translate(-60.85 -0.48)" fill="url(#linear-gradient-16)"/><path d="M337.26,155.5c-1.15.54-2.39.89-3.49,1.52a.93.93,0,0,0-.37.31.82.82,0,0,0-.09.49,5,5,0,0,0,.65,1.85l2.3,4.5a12.29,12.29,0,0,0,4.52-8.55C341,152.14,338.7,154.82,337.26,155.5Z" transform="translate(-60.85 -0.48)" fill="#fff"/><path d="M326.62,155.36a8.51,8.51,0,0,0,0,2.08,15.28,15.28,0,0,1,0,2.14,2.58,2.58,0,0,0,0,1,.85.85,0,0,0,.63.66,1.2,1.2,0,0,0,1-.5c.61-.65,1.13-1.38,1.77-2a3.84,3.84,0,0,1,2.33-1.19,3.56,3.56,0,0,0-1.44-1.18,6.67,6.67,0,0,1-1.89-1.74c-.34-.46-.79-1.21-1.44-.9A2.47,2.47,0,0,0,326.62,155.36Z" transform="translate(-60.85 -0.48)" fill="#fff"/><path d="M349.1,164.35a7.3,7.3,0,0,1-.33,4.39,3.8,3.8,0,0,1-3.5,2.32c.29,1.41,2.07,2.21,2.19,3.65a3.5,3.5,0,0,1-1.26,2.47l-16.84,18.28c3.92-7.82,5-16.7,7-25.21.65-2.72,1.41-5.42,2.26-8.09.44-1.38,1.29-6.18,2.84-6.69C345,154.31,348.66,162,349.1,164.35Z" transform="translate(-60.85 -0.48)" fill="#68e1fd"/><path d="M326.35,155.65l-3.61,1.74a1.82,1.82,0,0,0-.53.33,1.85,1.85,0,0,0-.44.69c-1.17,2.67-1.41,5.66-2.54,8.35a1.22,1.22,0,0,0-.13,1,1.18,1.18,0,0,0,.4.37l2,1.34a.32.32,0,0,1,.08.57l-3,3.65c0,3.45,1.72,6.84,3.45,9.84s5.31,9.67,6.14,13C326.15,184.38,324,167.81,326.35,155.65Z" transform="translate(-60.85 -0.48)" fill="#68e1fd"/><path d="M349.1,164.35a7.3,7.3,0,0,1-.33,4.39,3.8,3.8,0,0,1-3.5,2.32c.29,1.41,2.07,2.21,2.19,3.65a3.5,3.5,0,0,1-1.26,2.47l-16.84,18.28c3.92-7.82,5-16.7,7-25.21.65-2.72,1.41-5.42,2.26-8.09.44-1.38,1.29-6.18,2.84-6.69C345,154.31,348.66,162,349.1,164.35Z" transform="translate(-60.85 -0.48)" fill="url(#linear-gradient-17)"/><path d="M334.64,205.75h14.71c1.2-7.64-.85-15.38-1.18-23.1a90.25,90.25,0,0,1-4.53,12.88,9.19,9.19,0,0,1-1.12,2,7.82,7.82,0,0,1-2.12,1.71c-6.43,3.85-14.48,4-21.8,2.44-.86-7.08-1.73-14.23-4.18-20.93a168.79,168.79,0,0,1-3.11,21.72,4.45,4.45,0,0,1-.75,1.87,8,8,0,0,1-1.46,1.17c-2.18,1.69-2.71,4.71-3.08,7.44a2.64,2.64,0,0,0,.18,1.74,2.54,2.54,0,0,0,2.06.8,171.22,171.22,0,0,0,21.13.09c1.86-.11,7.72.41,8.38-1.6C338.1,213,335.72,205.75,334.64,205.75Z" transform="translate(-60.85 -0.48)" fill="url(#linear-gradient-18)"/><path d="M327.43,205.07a16.83,16.83,0,0,0-2.65.23,9.17,9.17,0,0,0-1.92.49,8,8,0,0,0-2.74,1.91,3.46,3.46,0,0,0-.72.94,4.13,4.13,0,0,0-.25,1.82c0,.7.09,1.52.7,1.87a2,2,0,0,0,.94.17c.73,0,1.47,0,2.2,0l10.91-.38a36.14,36.14,0,0,0,3.89-.27.78.78,0,0,0,.58-.27.73.73,0,0,0,.08-.36,4.6,4.6,0,0,0-.57-2.44c-.44-.82-1-1-1.84-1.37a30.16,30.16,0,0,0-5.42-1.93A14.33,14.33,0,0,0,327.43,205.07Z" transform="translate(-60.85 -0.48)" fill="url(#linear-gradient-19)"/><path d="M319.73,207a4.41,4.41,0,0,1,1.85,2.41,2.34,2.34,0,0,1-1.1,2.65,3.91,3.91,0,0,1-1.32.24q-6.59.34-13.18.07a1,1,0,0,1-.53-.13,1,1,0,0,1-.31-.72,5.43,5.43,0,0,1,.44-3.7c1.27-1.88,4.27-2.68,6.37-2.69C314.63,205.12,317.48,205.42,319.73,207Z" transform="translate(-60.85 -0.48)" fill="url(#linear-gradient-20)"/><rect x="106.26" y="212.65" width="282.65" height="14.91" rx="3.01" transform="translate(434.31 439.72) rotate(-180)" fill="#68e1fd"/><path d="M128.54,226.69H366.62a14.55,14.55,0,0,1,14.55,14.55v76a0,0,0,0,1,0,0H114a0,0,0,0,1,0,0v-76a14.55,14.55,0,0,1,14.55-14.55Z" transform="translate(434.31 543.49) rotate(-180)" fill="#68e1fd"/><rect x="114" y="226.69" width="267.17" height="38.96" transform="translate(434.31 491.87) rotate(-180)" fill="url(#linear-gradient-21)"/><path d="M333.27,158.2a4.47,4.47,0,0,1,1.34,4.83c-.32.9-.92,1.68-1.15,2.61a7.21,7.21,0,0,0,.12,2.77c.3,1.76.52,3.54.65,5.33a22.89,22.89,0,0,1,0,4,26.87,26.87,0,0,1-1,4.5l-2.3,8.09a45.49,45.49,0,0,1-2.13,6.28c-1.14-1.06-1.39-2.74-1.56-4.29q-.32-2.78-.57-5.57a25.27,25.27,0,0,1-.07-5.83,26.29,26.29,0,0,1,1.75-5.79c.8-2.08,1.6-4.15,2.41-6.23.59-1.53,1.2-3.2.79-4.79-.49-1.88-2.35-3.52-1.85-5.4a2.66,2.66,0,0,1,3.4-.85c1.36.77,1.72,2.52,1.94,4" transform="translate(-60.85 -0.48)" fill="#3e3e54"/><path d="M333.27,158.2a4.47,4.47,0,0,1,1.34,4.83c-.32.9-.92,1.68-1.15,2.61a7.21,7.21,0,0,0,.12,2.77c.3,1.76.52,3.54.65,5.33a22.89,22.89,0,0,1,0,4,26.87,26.87,0,0,1-1,4.5l-2.3,8.09a45.49,45.49,0,0,1-2.13,6.28c-1.14-1.06-1.39-2.74-1.56-4.29q-.32-2.78-.57-5.57a25.27,25.27,0,0,1-.07-5.83,26.29,26.29,0,0,1,1.75-5.79c.8-2.08,1.6-4.15,2.41-6.23.59-1.53,1.2-3.2.79-4.79-.49-1.88-2.35-3.52-1.85-5.4a2.66,2.66,0,0,1,3.4-.85c1.36.77,1.72,2.52,1.94,4" transform="translate(-60.85 -0.48)" fill="url(#linear-gradient-22)"/><path d="M165.76,139.85a2.29,2.29,0,0,0-.37-.77,1,1,0,0,0-.74-.38,1.14,1.14,0,0,0-.94.84,3.68,3.68,0,0,0,.51,3c.24.42.6.87,1.08.87C166.82,143.38,166,140.59,165.76,139.85Z" transform="translate(-60.85 -0.48)" fill="url(#linear-gradient-23)"/><path d="M192.93,254h7.28l9.51,14V254h7.36v25.25h-7.36l-9.45-13.86v13.86h-7.34Z" transform="translate(-60.85 -0.48)" fill="#fff"/><path d="M222.24,254h20.91v5.39H230.06v4H242.2v5.15H230.06v5h13.47v5.72H222.24Z" transform="translate(-60.85 -0.48)" fill="#fff"/><path d="M245.13,254h7.41l2.67,14.13,3.9-14.13h7.39l3.91,14.12L273.08,254h7.37l-5.56,25.25h-7.65l-4.43-15.9-4.41,15.9h-7.65Z" transform="translate(-60.85 -0.48)" fill="#fff"/><path d="M281.64,270.89l7.42-.47a5.73,5.73,0,0,0,1,2.76,4.12,4.12,0,0,0,3.44,1.53,3.81,3.81,0,0,0,2.58-.79,2.25,2.25,0,0,0,0-3.57,10,10,0,0,0-4-1.46q-5.13-1.15-7.32-3.07a6.15,6.15,0,0,1-2.2-4.87,6.66,6.66,0,0,1,1.13-3.68,7.48,7.48,0,0,1,3.39-2.72,15.85,15.85,0,0,1,6.21-1q4.83,0,7.38,1.8a7.78,7.78,0,0,1,3,5.73l-7.35.43a3.44,3.44,0,0,0-3.83-3.26,3.11,3.11,0,0,0-2.05.58,1.75,1.75,0,0,0-.68,1.4,1.4,1.4,0,0,0,.56,1.09,6.5,6.5,0,0,0,2.62.93,32.19,32.19,0,0,1,7.33,2.23,7.67,7.67,0,0,1,3.22,2.8,7.07,7.07,0,0,1,1,3.73,8,8,0,0,1-1.35,4.48,8.35,8.35,0,0,1-3.75,3.11,15.1,15.1,0,0,1-6.08,1.06c-4.29,0-7.27-.83-8.92-2.48A9.81,9.81,0,0,1,281.64,270.89Z" transform="translate(-60.85 -0.48)" fill="#fff"/><path d="M195,184.12a19,19,0,0,0-.64-4.51c-.52-1.63-1.49-3.17-1.5-4.87a36.9,36.9,0,0,0,3.08,5c.66.91,1.35,1.78,2,2.73a15.69,15.69,0,0,1,1.34,2.65,2,2,0,0,1,.19,1,2,2,0,0,1-1,1.24c-.74.49-2.41,2-3.12,1.18C194.73,187.89,195,185,195,184.12Z" transform="translate(-60.85 -0.48)" fill="url(#linear-gradient-24)"/><path d="M265.92,38.46l-.36,1.2a.1.1,0,0,1-.06,0c-1.49.2-1.62.39-1.23,1.87s.24,1.75-1,2.6a.7.7,0,0,0-.29,1,1.59,1.59,0,0,0,1.88,1.1c1-.06,1-.06,1.24.84a1.08,1.08,0,0,0,.83.73,6,6,0,0,1,1.09.51c.32.18.3.42.12.74a8.23,8.23,0,0,0-.88,1.94A4.23,4.23,0,0,1,265,54c-.26.14-.51.3-.92.55l1.52.29a1.92,1.92,0,0,1,1.49.93,1,1,0,0,1-.39,1.48,9,9,0,0,1-1.57.67c-1.59.57-1.81,1.22-.86,2.6.35.5.69,1,1.07,1.49a2.27,2.27,0,0,0,.71.6c.38.21.74.28,1-.26a3.55,3.55,0,0,1,.67-.68,2.71,2.71,0,0,1,.67,2.84c-.65,1.82-1.33,3.64-1.91,5.48a7.3,7.3,0,0,0,1.32,7.45,2.82,2.82,0,0,1,.57,1.24,2.85,2.85,0,0,0,1.42,2,10,10,0,0,0,1,.55,6.06,6.06,0,0,1,2.41,2,6.26,6.26,0,0,0,1,1.11,1.5,1.5,0,0,0,2.35-.29,1.87,1.87,0,0,0,.24-.38,1.83,1.83,0,0,1,2-1.07c.3,0,.59,0,.89,0,.86,0,1-.13,1.11-1,0-.15,0-.3.07-.44a1.05,1.05,0,0,1,1.35-.89c.7.11,1.42.21,2.13.27,1.25.1,1.7.52,1.56,1.76a4.93,4.93,0,0,0,.82,3.2,15,15,0,0,0,2.52,3.3,2.2,2.2,0,0,1,.53,3c-.22.49-.48,1-.73,1.44a2.62,2.62,0,0,0,.09,2.8,23.82,23.82,0,0,0,2.49,3.24,4.12,4.12,0,0,1,1.36,3.52,5,5,0,0,0,1.36,4.13,1.9,1.9,0,0,0,.21.19.83.83,0,0,0,.14.07c1-1.08,2.66-1.17,3.56-2.56a53.77,53.77,0,1,1-32.39-66.13ZM224.33,58.23c1.66-.08,3.19.73,4.76.43l.34-2.25a7.08,7.08,0,0,0-.8-.16c-.39,0-.42-.3-.38-.54a.61.61,0,0,1,.41-.35c.41-.08.85-.06,1.26-.15a5,5,0,0,0,.91-.35l0-.29a5.92,5.92,0,0,0-1.66-.12,4.74,4.74,0,0,1-4-.81,2.36,2.36,0,0,0-2.07-.39A12.86,12.86,0,0,0,221,54a3.24,3.24,0,0,1-3.08,0,3.46,3.46,0,0,0-1.26-.37c-.76-.07-.85.08-.61.83l1,.06a3.43,3.43,0,0,0-.52.65,4.13,4.13,0,0,0-.19.77c-1.15,0-1.48.36-1.5,1.52a10.07,10.07,0,0,0,.06,1.22c.05.51.13,1,.2,1.59-1.58-.83-3.08,0-4.64,0,0-.2,0-.4-.06-.6a2.14,2.14,0,0,0-.25-.89,1.31,1.31,0,0,0-.8-.44c-.39,0-.41.37-.39.66a1.33,1.33,0,0,1-.74,1.27,7.49,7.49,0,0,1-3.31,1.18c-.81.08-1.62.2-2.41.35-.37.06-.74.25-.7.72a1.08,1.08,0,0,0,.76.94.8.8,0,0,0,1-.3c.24-.34.45-.71.7-1.11.11.15.26.26.3.4.19.55.62.6,1.1.61a6.5,6.5,0,0,0,3.45-.87c.14-.08.28-.14.42-.21a2.19,2.19,0,0,1-.78.79c-.86.49-1.74,1-2.64,1.41a7.92,7.92,0,0,1-4.09.81c-.53,0-1.07,0-1.61,0a1.86,1.86,0,0,0-1.83,1.28,10.33,10.33,0,0,0-.51,2c-.25,1.89-.38,3.8-.68,5.68a26,26,0,0,1-.92,3,1.76,1.76,0,0,0,.52,2c.42.37.69.32.84-.23s.17-.87.27-1.41c.37.73.66,1.36,1,2a15.38,15.38,0,0,1,1.57,4.14,17.07,17.07,0,0,0,.75,2.43,4.35,4.35,0,0,0,3.14,2.88A4.4,4.4,0,0,1,208,92a8.21,8.21,0,0,0,.87,1.85,1.88,1.88,0,0,0,2.2.83L210,93.5c-.49-.51-1-1-1.47-1.51a1.7,1.7,0,0,1-.31-1.85,2.28,2.28,0,0,1,.59.18c1.66,1,3.51,1.76,4.8,3.25A6.54,6.54,0,0,0,220,95.82a23.14,23.14,0,0,1,5.26-.22,3.7,3.7,0,0,1,2.2.79,5,5,0,0,0,1.41.71c1.12.43,2.24.84,3.38,1.23a1.62,1.62,0,0,0,.89.09.87.87,0,0,1,1,.22,4.13,4.13,0,0,1,1,1.37,12.16,12.16,0,0,1,.37,2.56c.07,1.07,0,2.15.09,3.22a3.09,3.09,0,0,0,1.74,2.83,7,7,0,0,1,2.42,2.08l1.06,1.28a2.11,2.11,0,0,0,2,.87c1.06-.19,1.52.35,1.86,1.18.08.19.17.37.25.56.74,1.69,1.46,3.4,2.22,5.08a9.05,9.05,0,0,1,.79,5.51,5.9,5.9,0,0,0,.67,4c.42.8.73,1.65,1.12,2.47.67,1.4,1.33,2.81,2.07,4.16a2.52,2.52,0,0,0,1.18,1.13,5.82,5.82,0,0,0,3.86-.14c.13-.05.32-.25.3-.34a.61.61,0,0,0-.34-.38,3.61,3.61,0,0,0-.87,0,1.13,1.13,0,0,1-1.38-.89,11.41,11.41,0,0,1-.38-1.22c-.32-1.48-.64-3-.91-4.45-.07-.38-.09-1,.12-1.15a5.45,5.45,0,0,1,1.54-.72c.11,0,.28,0,.38,0s.51-.26.56-.45-.18-.42-.33-.71c.07-.09.23-.26.38-.45.54-.69.53-1,0-1.72a4.08,4.08,0,0,1-.69-.93,5.2,5.2,0,0,1-.46-1.67,1,1,0,0,1,.55-.78,1.26,1.26,0,0,1,.94.26,3.3,3.3,0,0,1,.58.78,1.13,1.13,0,0,0,1.09-1.25,16.26,16.26,0,0,0-.17-2.7,5.25,5.25,0,0,1,.5-3.39,9.55,9.55,0,0,0,.79-2.29,5.35,5.35,0,0,1,1.62-2.85c.39-.36.79-.72,1.17-1.1a2.49,2.49,0,0,0,.69-2.6,17.26,17.26,0,0,0-.87-2.34,6.75,6.75,0,0,1-.58-4.79c.23-.91,0-1.31-.91-1.49a9.34,9.34,0,0,0-3-.26,11.89,11.89,0,0,1-7.24-1,7.23,7.23,0,0,0-3.06-.67,2.9,2.9,0,0,1-1.67-.6,3.66,3.66,0,0,0-2.73-.83c-.48,0-1,0-1.44,0-1.6.12-3.21.23-4.81.43-.77.1-1,.5-1,1.28V97c-.45.26-.79.07-1.08-.31a.71.71,0,0,0-1.11-.18,1.59,1.59,0,0,1-2.16,0c-.25-.15-.55-.25-.78-.42-.63-.45-1.36-.83-1.23-1.82-.28.07-.49.13-.71.17A2,2,0,0,1,225.39,93c-.08-.27-.15-.54-.25-.8-.29-.77-.7-.92-1.51-.53a1.44,1.44,0,0,1-.84,1.77,3.07,3.07,0,0,1-4.14-2.32,10.45,10.45,0,0,1,.06-2.37,3.76,3.76,0,0,1,2.85-3.27c.52-.17,1.06-.29,1.5-.4.15-.3.2-.64.38-.74,1.57-.83,2.32-1.3,3.77.52a3.58,3.58,0,0,0,.54.56c.25.2.53.37.92.64a5.76,5.76,0,0,0-.11-.85c-.23-.8-.46-1.6-.75-2.38a4,4,0,0,1,.17-3.43,4.63,4.63,0,0,0,.38-1,1.33,1.33,0,0,0-.32-1.44c-.29-.26-.16-.45.06-.63a5.28,5.28,0,0,0,.55-.37c.17-.18.41-.44.39-.65a1.68,1.68,0,0,1,.6-1.31,3.29,3.29,0,0,0,.67-1.16,10.32,10.32,0,0,0,.21-1.59,6.44,6.44,0,0,1,.15-1,1.2,1.2,0,0,1,1-.89c.44-.08.9-.24,1.22.3a.69.69,0,0,0,.54.17,2.07,2.07,0,0,0,1.49-1.78l-1.77.11-.24-1c-1-.2-1.67.77-2.66.87.51-1.09,1-2.12,1.46-3.12a.66.66,0,0,1,.8-.32,3.12,3.12,0,0,0,1.14,0,6.09,6.09,0,0,0,1.21-.39c.44-.19.57,0,.63.41A1.26,1.26,0,0,0,237,65.89c.61,0,1.22,0,1.83-.1s.85-.51.5-1.06a1.37,1.37,0,0,0-1.41-.67.49.49,0,0,1-.63-.45,2.86,2.86,0,0,0-2-2.11,11.64,11.64,0,0,0-1.91-.57,2.55,2.55,0,0,1-1.9-1.38,1.16,1.16,0,0,0-.4-.45c-.39-.26-.67-.13-.77.33a1.24,1.24,0,0,1-1.92.81,6.83,6.83,0,0,1-.74-.59,2.36,2.36,0,0,0-3.07.39,2.3,2.3,0,0,0-.08,3.14,1.08,1.08,0,0,1-.31,1.95,2.09,2.09,0,0,1-.74.2c-1.9.21-3.79.41-5.69.6-.83.08-1.12-.22-1-1.07a3.28,3.28,0,0,1,.3-1c.46-.94,1-1.87,1.43-2.8a3.24,3.24,0,0,0,.84.49,1.46,1.46,0,0,0,1.05,0,8.37,8.37,0,0,0,1.41-1.32c.44-.46.38-.71-.16-1-.13-.08-.29-.2-.32-.33-.16-.8-.29-1.6-.44-2.45.77-.07,1.7-.57,2.39.38l1.62-.43.17.15Zm9.9-7.28a4.91,4.91,0,0,0,.23,1,7,7,0,0,0,1,1.76,10.89,10.89,0,0,0,2,1.55,2,2,0,0,0,2.39.23c.82-.53.74-1.38.7-2.2,0-.55-.08-1.11-.06-1.66a1.33,1.33,0,0,1,.85-1.25,7.74,7.74,0,0,0,1.76-1,23.72,23.72,0,0,1,4.24-2.93c.75-.37.78-.66.46-1.44a13.79,13.79,0,0,1-.6-1.78c-.11-.43.12-.71.61-.7l.88,0c.82,0,1.07-.15,1.31-.91a1.82,1.82,0,0,1,1.06-1.2c.22-.09.51-.21.58-.4a3.44,3.44,0,0,0,.12-1c-.23,0-.52-.14-.69,0-.66.37-1.27.82-1.9,1.23a4.94,4.94,0,0,1-1.36.81,10.07,10.07,0,0,0-2.69.81c-.62.31-.9.07-.72-.61a19.15,19.15,0,0,1,.78-2.12c.16-.4.41-.81,0-1.19s-.72-.06-1.07.07-.51.21-.76.33a3.52,3.52,0,0,1-2.17.25,1.38,1.38,0,0,0-1.75,1,.78.78,0,0,1-.58.44,2.54,2.54,0,0,1-1.15-.28,1.32,1.32,0,0,0-2,.47A3,3,0,0,1,233,42a4.83,4.83,0,0,0-3.26,1.34,16.86,16.86,0,0,1-1.82,1.46,5.86,5.86,0,0,0-2.43,3.34c-.38,1.3-.21,1.5,1.11,1.21a3.35,3.35,0,0,1,3,.67c.23.19.47.37.71.54C231.5,51.34,232.71,52.16,234.23,51Zm-8.9-5.34-.09-.19a4.2,4.2,0,0,0-1,.22c-.57.28-1.1.67-1.66,1-.8.43-1.6.84-2.41,1.23-.61.29-1.28.49-1.87.82a1.66,1.66,0,0,0-.88,1.82.86.86,0,0,1,0,.24c-.86.22-1.69.4-2.49.65-.23.07-.39.34-.58.51.19.19.36.51.57.54a6.36,6.36,0,0,0,1.57,0c.87-.12,1.48-.11,1.47,1.1,0,0,0,.07.12.22.82-.05,1.7-.05,2.57-.17.67-.09.85-.42.77-1.05a2.33,2.33,0,0,1-.59,0,1.23,1.23,0,0,1-.67-.3c-.08-.13,0-.5.19-.65a12.12,12.12,0,0,1,1.39-1.19,3.48,3.48,0,0,0,1.52-2.16,2.81,2.81,0,0,1,1.31-1.84A6.05,6.05,0,0,0,225.33,45.61Zm35.41,2.51c-.18.61-.34,1.1-.48,1.59,0,.15-.08.39,0,.47.4.42.13.74-.11,1.07l-.92,1.25c.19.11.27.19.37.23.41.18.73.62,1.26.39s.36-.73.46-1.14a.78.78,0,0,1,.48-.49c.15,0,.4.18.54.34a1.54,1.54,0,0,1,.19.51,1.63,1.63,0,0,0,1.34,1.17A2,2,0,0,0,266,51.38a8.55,8.55,0,0,1-4.17-2.48A7.17,7.17,0,0,0,260.74,48.12Zm-7.24-1.59a4.84,4.84,0,0,1-1.21-.17,1.12,1.12,0,0,0-1.35.29,1.69,1.69,0,0,1-1.31.58,2.45,2.45,0,0,0-1.07.42c-.46.28-.47.62,0,.88s1.24.55,1.91.85A1.75,1.75,0,0,1,252,48a2.45,2.45,0,0,0,.71-.3A1.41,1.41,0,0,0,253.5,46.53ZM206.56,59.8a2.17,2.17,0,0,0,.54-.06c.42-.15,1-.22,1.19-.52a2.59,2.59,0,0,1,1.5-1.37c.15-.05.23-.28.34-.43a2,2,0,0,0-.5-.26c-.42-.07-.63.21-.82.53-.47.77-.79.83-1.58.43a.79.79,0,0,0-.7.15c-.3.28-.55.54-1,.35a.39.39,0,0,0-.32,0c-.57.42-1.12.84-1.67,1.28-.07.07-.13.3-.08.34a.5.5,0,0,0,.38.12c.34-.12.66-.31,1-.42a7.32,7.32,0,0,1,1.15-.23A2.45,2.45,0,0,1,206.56,59.8Zm20.17,29.07.14.26a3.79,3.79,0,0,0,1.18-.47,2,2,0,0,1,2.55-.23,2.78,2.78,0,0,0,2.35.3c.2,0,.52-.31.5-.44a1.1,1.1,0,0,0-.46-.59c-.12-.09-.35,0-.53,0-.51,0-1-.08-1.51-.14a2.14,2.14,0,0,0-.65-.08c-1,.24-2,.51-2.9.83C227.14,88.37,227,88.67,226.73,88.87Zm10.81-1.18h-1.2a2,2,0,0,0-.49,0,6.23,6.23,0,0,0-1.4.47.78.78,0,0,0,.06,1.36,2.13,2.13,0,0,0,2.13-.71C236.89,88.44,237.21,88.1,237.54,87.69ZM213.19,54.75c.07-.24-.05-.44-.43-.48a2.56,2.56,0,0,0-.65-.12,4,4,0,0,0-.94.25s0,.36.05.36a5.27,5.27,0,0,0,1,.06C212.5,54.82,212.8,54.78,213.19,54.75Zm-4.61,1.63-.19-.12-1,1.22.08.19c.22,0,.48,0,.63-.13A1.1,1.1,0,0,0,208.58,56.38Z" transform="translate(-60.85 -0.48)" fill="#68e1fd"/><path d="M342.09,135.64a1.11,1.11,0,0,1,.58.51,3.22,3.22,0,0,1,.35,2.43,4.19,4.19,0,0,1-1.31,2.11,1.4,1.4,0,0,1-2.23-1.69c.29-.62.59-1.16.83-1.82S341.2,135.38,342.09,135.64Z" transform="translate(-60.85 -0.48)" fill="url(#linear-gradient-25)"/></svg>